<svg width="18" height="19" viewBox="0 0 18 19" fill="none" xmlns="http://www.w3.org/2000/svg">
<path d="M8.9999 16.21C8.86802 16.2081 8.74222 16.1542 8.6499 16.06L2.9499 10.36C2.90304 10.3135 2.86584 10.2582 2.84046 10.1973C2.81507 10.1364 2.802 10.071 2.802 10.005C2.802 9.93902 2.81507 9.87367 2.84046 9.81274C2.86584 9.75181 2.90304 9.69651 2.9499 9.65003L11.3399 1.15003C11.3818 1.09858 11.4355 1.05806 11.4964 1.03193C11.5574 1.0058 11.6238 0.994857 11.6899 1.00003H17.4399C17.5717 1.00259 17.6974 1.05609 17.7906 1.14931C17.8838 1.24253 17.9373 1.36822 17.9399 1.50003L17.9999 7.19003C18.0015 7.25719 17.9889 7.32393 17.9631 7.38595C17.9373 7.44796 17.8987 7.50386 17.8499 7.55003L9.3499 16.06C9.25698 16.1533 9.13156 16.2071 8.9999 16.21ZM3.9999 10L8.9999 15L16.9999 7.00003L16.9399 2.00003H11.9399L3.9999 10Z" fill="#414042"/>
<path d="M11.7901 19C11.66 18.9988 11.5351 18.9488 11.4401 18.86L0.150096 7.57001C0.103232 7.52353 0.066035 7.46823 0.0406506 7.4073C0.0152663 7.34637 0.00219727 7.28102 0.00219727 7.21501C0.00219727 7.14901 0.0152663 7.08366 0.0406506 7.02273C0.066035 6.9618 0.103232 6.9065 0.150096 6.86001C0.194987 6.81218 0.249204 6.77406 0.309402 6.748C0.369599 6.72194 0.4345 6.7085 0.500096 6.7085C0.565693 6.7085 0.630593 6.72194 0.690791 6.748C0.750989 6.77406 0.805206 6.81218 0.850096 6.86001L12.1501 18.15C12.2423 18.2452 12.2939 18.3725 12.2939 18.505C12.2939 18.6375 12.2423 18.7649 12.1501 18.86C12.0515 18.9495 11.9233 18.9993 11.7901 19Z" fill="#414042"/>
<path d="M4 18.94C3.86487 18.9396 3.73539 18.8857 3.64 18.79L0.17 15.37C0.117771 15.3233 0.0757207 15.2663 0.0464723 15.2027C0.0172239 15.139 0.00140431 15.07 0 15C0 14.73 0 14.69 4 10.76C4.04648 10.7131 4.10178 10.6759 4.16271 10.6505C4.22364 10.6251 4.28899 10.6121 4.355 10.6121C4.42101 10.6121 4.48636 10.6251 4.54729 10.6505C4.60822 10.6759 4.66352 10.7131 4.71 10.76C4.80225 10.8551 4.85384 10.9824 4.85384 11.115C4.85384 11.2475 4.80225 11.3748 4.71 11.47C3.63 12.59 1.9 14.3 1.22 15L4 17.73L7.53 14.19C7.62415 14.0958 7.75185 14.0429 7.885 14.0429C8.01815 14.0429 8.14585 14.0958 8.24 14.19C8.33415 14.2841 8.38704 14.4118 8.38704 14.545C8.38704 14.6781 8.33415 14.8058 8.24 14.9L4.3 18.79C4.22025 18.873 4.11429 18.926 4 18.94Z" fill="#414042"/>
<path d="M9.00005 10.5C8.93448 10.5008 8.86946 10.4878 8.80918 10.462C8.7489 10.4362 8.6947 10.398 8.65005 10.35C8.60222 10.3051 8.5641 10.2509 8.53804 10.1907C8.51198 10.1305 8.49854 10.0656 8.49854 9.99998C8.49854 9.93438 8.51198 9.86948 8.53804 9.80928C8.5641 9.74909 8.60222 9.69487 8.65005 9.64998L12.6501 5.64998C12.696 5.60402 12.7506 5.56756 12.8106 5.54268C12.8707 5.51781 12.9351 5.505 13.0001 5.505C13.0651 5.505 13.1294 5.51781 13.1895 5.54268C13.2495 5.56756 13.3041 5.60402 13.3501 5.64998C13.396 5.69594 13.4325 5.75051 13.4573 5.81056C13.4822 5.87061 13.495 5.93498 13.495 5.99998C13.495 6.06498 13.4822 6.12934 13.4573 6.1894C13.4325 6.24945 13.396 6.30402 13.3501 6.34998L9.35005 10.35C9.30541 10.398 9.2512 10.4362 9.19092 10.462C9.13065 10.4878 9.06563 10.5008 9.00005 10.5Z" fill="#414042"/>
</svg>
