<svg width="19" height="18" viewBox="0 0 19 18" fill="none" xmlns="http://www.w3.org/2000/svg">
<path d="M14.5 18H3.5C2.57174 18 1.6815 17.6313 1.02513 16.9749C0.368749 16.3185 0 15.4283 0 14.5V3.5C0 2.57174 0.368749 1.6815 1.02513 1.02513C1.6815 0.368749 2.57174 0 3.5 0H14.5C15.4283 0 16.3185 0.368749 16.9749 1.02513C17.6313 1.6815 18 2.57174 18 3.5V14.5C18 15.4283 17.6313 16.3185 16.9749 16.9749C16.3185 17.6313 15.4283 18 14.5 18ZM3.5 1C2.83696 1 2.20107 1.26339 1.73223 1.73223C1.26339 2.20107 1 2.83696 1 3.5V14.5C1 15.163 1.26339 15.7989 1.73223 16.2678C2.20107 16.7366 2.83696 17 3.5 17H14.5C15.163 17 15.7989 16.7366 16.2678 16.2678C16.7366 15.7989 17 15.163 17 14.5V3.5C17 2.83696 16.7366 2.20107 16.2678 1.73223C15.7989 1.26339 15.163 1 14.5 1H3.5Z" fill="#414042"/>
<path d="M0.500122 13.8099C0.427276 13.8107 0.355202 13.7949 0.289364 13.7638C0.223526 13.7326 0.16565 13.6868 0.120122 13.6299C0.0772374 13.5804 0.0447133 13.5228 0.0244724 13.4605C0.00423147 13.3982 -0.00331519 13.3325 0.00227846 13.2673C0.00787212 13.202 0.0264924 13.1385 0.0570389 13.0806C0.0875854 13.0227 0.129438 12.9714 0.180123 12.9299L4.88012 8.99994C5.59292 8.40884 6.51092 8.12431 7.43308 8.20865C8.35523 8.29299 9.20638 8.73934 9.80012 9.44994L10.9201 10.7899C11.1327 11.0461 11.3946 11.2571 11.6902 11.4103C11.9857 11.5636 12.3091 11.656 12.641 11.6821C12.9729 11.7082 13.3067 11.6675 13.6226 11.5623C13.9385 11.4572 14.2301 11.2897 14.4801 11.0699L17.1701 8.71994C17.2716 8.63408 17.4027 8.59126 17.5353 8.6006C17.6679 8.60994 17.7916 8.6707 17.8801 8.76994C17.9236 8.81881 17.9568 8.87589 17.9779 8.93781C17.9989 8.99973 18.0074 9.06524 18.0027 9.13048C17.9981 9.19572 17.9804 9.25936 17.9508 9.31766C17.9211 9.37596 17.8801 9.42774 17.8301 9.46994L15.1401 11.8199C14.7896 12.1298 14.3803 12.366 13.9366 12.5145C13.4929 12.663 13.0239 12.7207 12.5575 12.6844C12.091 12.648 11.6367 12.5182 11.2214 12.3027C10.8061 12.0872 10.4384 11.7904 10.1401 11.4299L9.00012 10.1199C8.79084 9.8682 8.53397 9.66021 8.24421 9.50786C7.95445 9.35551 7.6375 9.26179 7.31148 9.23207C6.98547 9.20235 6.65679 9.2372 6.34426 9.33464C6.03173 9.43209 5.74148 9.5902 5.49012 9.79994L0.790122 13.6999C0.706292 13.7642 0.605466 13.8024 0.500122 13.8099Z" fill="#414042"/>
</svg>
