<svg width="20" height="20" viewBox="0 0 20 20" fill="none" xmlns="http://www.w3.org/2000/svg">
<path d="M7.14997 9.00002H2.14997C1.70613 9.00003 1.28033 8.8244 0.965553 8.5115C0.650778 8.1986 0.472613 7.77385 0.469971 7.33002V2.33002C0.472595 1.88527 0.650437 1.45948 0.964931 1.14498C1.27942 0.83049 1.70522 0.652648 2.14997 0.650024H7.14997C7.59472 0.652648 8.02052 0.83049 8.33501 1.14498C8.6495 1.45948 8.82735 1.88527 8.82997 2.33002V7.33002C8.82733 7.77385 8.64916 8.1986 8.33439 8.5115C8.01961 8.8244 7.59381 9.00003 7.14997 9.00002ZM2.14997 1.64002C1.97043 1.64261 1.79896 1.71508 1.672 1.84205C1.54503 1.96902 1.47255 2.14048 1.46997 2.32002V7.32002C1.46997 7.50037 1.54161 7.67333 1.66914 7.80086C1.79666 7.92838 1.96962 8.00002 2.14997 8.00002H7.14997C7.33032 8.00002 7.50328 7.92838 7.6308 7.80086C7.75833 7.67333 7.82997 7.50037 7.82997 7.32002V2.32002C7.82739 2.14048 7.75491 1.96902 7.62795 1.84205C7.50098 1.71508 7.32951 1.64261 7.14997 1.64002H2.14997Z" fill="#414042"/>
<path d="M17.8502 9.00001H12.8502C12.4046 9.00001 11.9773 8.82301 11.6622 8.50795C11.3472 8.19289 11.1702 7.76557 11.1702 7.32001V2.32001C11.1728 1.87526 11.3506 1.44947 11.6651 1.13497C11.9796 0.820481 12.4054 0.642639 12.8502 0.640015H17.8502C18.2949 0.642639 18.7207 0.820481 19.0352 1.13497C19.3497 1.44947 19.5275 1.87526 19.5302 2.32001V7.32001C19.5302 7.76557 19.3532 8.19289 19.0381 8.50795C18.723 8.82301 18.2957 9.00001 17.8502 9.00001ZM12.8502 1.64001C12.6706 1.6426 12.4992 1.71507 12.3722 1.84204C12.2452 1.96901 12.1727 2.14047 12.1702 2.32001V7.32001C12.1702 7.50036 12.2418 7.67332 12.3693 7.80084C12.4969 7.92837 12.6698 8.00001 12.8502 8.00001H17.8502C18.0305 8.00001 18.2035 7.92837 18.331 7.80084C18.4585 7.67332 18.5302 7.50036 18.5302 7.32001V2.32001C18.5276 2.14047 18.4551 1.96901 18.3281 1.84204C18.2012 1.71507 18.0297 1.6426 17.8502 1.64001H12.8502Z" fill="#414042"/>
<path d="M7.14997 19.35H2.14997C1.70522 19.3474 1.27942 19.1695 0.964931 18.855C0.650437 18.5405 0.472595 18.1148 0.469971 17.67V12.67C0.472613 12.2262 0.650778 11.8014 0.965553 11.4885C1.28033 11.1756 1.70613 11 2.14997 11H7.14997C7.59553 11 8.02285 11.177 8.33791 11.4921C8.65297 11.8071 8.82997 12.2344 8.82997 12.68V17.68C8.82473 18.123 8.64574 18.5463 8.33153 18.8586C8.01731 19.1709 7.59301 19.3474 7.14997 19.35ZM2.14997 12C1.96962 12 1.79666 12.0716 1.66914 12.1992C1.54161 12.3267 1.46997 12.4997 1.46997 12.68V17.68C1.47255 17.8595 1.54503 18.031 1.672 18.158C1.79896 18.2849 1.97043 18.3574 2.14997 18.36H7.14997C7.32951 18.3574 7.50098 18.2849 7.62795 18.158C7.75491 18.031 7.82739 17.8595 7.82997 17.68V12.68C7.82997 12.4997 7.75833 12.3267 7.6308 12.1992C7.50328 12.0716 7.33032 12 7.14997 12H2.14997Z" fill="#414042"/>
<path d="M17.8502 19.35H12.8502C12.4054 19.3474 11.9796 19.1695 11.6651 18.855C11.3506 18.5405 11.1728 18.1148 11.1702 17.67V12.67C11.1728 12.2262 11.351 11.8014 11.6657 11.4885C11.9805 11.1756 12.4063 11 12.8502 11H17.8502C18.2957 11 18.723 11.177 19.0381 11.4921C19.3532 11.8071 19.5302 12.2344 19.5302 12.68V17.68C19.5249 18.123 19.3459 18.5463 19.0317 18.8586C18.7175 19.1709 18.2932 19.3474 17.8502 19.35ZM12.8502 11.99C12.6698 11.99 12.4969 12.0616 12.3693 12.1892C12.2418 12.3167 12.1702 12.4897 12.1702 12.67V17.67C12.1727 17.8495 12.2452 18.021 12.3722 18.148C12.4992 18.2749 12.6706 18.3474 12.8502 18.35H17.8502C18.0297 18.3474 18.2012 18.2749 18.3281 18.148C18.4551 18.021 18.5276 17.8495 18.5302 17.67V12.67C18.5302 12.4897 18.4585 12.3167 18.331 12.1892C18.2035 12.0616 18.0305 11.99 17.8502 11.99H12.8502Z" fill="#414042"/>
</svg>
