<svg width="20" height="20" viewBox="0 0 20 20" fill="none" xmlns="http://www.w3.org/2000/svg">
<path d="M10 19.5C8.12108 19.5 6.28435 18.9428 4.72209 17.899C3.15982 16.8551 1.94218 15.3714 1.22315 13.6355C0.504116 11.8996 0.315985 9.98947 0.682544 8.14665C1.0491 6.30383 1.95389 4.61109 3.28249 3.28249C4.61109 1.95389 6.30383 1.0491 8.14665 0.682544C9.98947 0.315985 11.8996 0.504116 13.6355 1.22315C15.3714 1.94218 16.8551 3.15982 17.899 4.72209C18.9428 6.28435 19.5 8.12108 19.5 10C19.4974 12.5187 18.4956 14.9336 16.7146 16.7146C14.9336 18.4956 12.5187 19.4974 10 19.5ZM10 1.5C8.31886 1.5 6.67548 1.99852 5.27766 2.93251C3.87984 3.8665 2.79037 5.19402 2.14703 6.74719C1.50368 8.30037 1.33535 10.0094 1.66333 11.6583C1.9913 13.3071 2.80085 14.8217 3.9896 16.0104C5.17834 17.1992 6.6929 18.0087 8.34174 18.3367C9.99057 18.6647 11.6996 18.4963 13.2528 17.853C14.806 17.2096 16.1335 16.1202 17.0675 14.7224C18.0015 13.3245 18.5 11.6811 18.5 10C18.4974 7.74648 17.601 5.58601 16.0075 3.99252C14.414 2.39903 12.2535 1.50265 10 1.5Z" fill="#414042"/>
<path d="M10 15.21C8.9696 15.21 7.9623 14.9045 7.10552 14.332C6.24874 13.7595 5.58096 12.9458 5.18663 11.9938C4.7923 11.0418 4.68912 9.99426 4.89015 8.98362C5.09118 7.97298 5.58738 7.04465 6.31601 6.31602C7.04465 5.58738 7.97298 5.09118 8.98362 4.89015C9.99426 4.68912 11.0418 4.7923 11.9938 5.18663C12.9458 5.58096 13.7595 6.24874 14.332 7.10552C14.9045 7.9623 15.21 8.9696 15.21 10C15.2074 11.381 14.6576 12.7047 13.6811 13.6811C12.7047 14.6576 11.381 15.2074 10 15.21ZM10 5.79004C9.16738 5.79004 8.35342 6.03695 7.66109 6.49955C6.96876 6.96216 6.42915 7.61967 6.11051 8.38894C5.79186 9.15822 5.70849 10.0047 5.87094 10.8214C6.03338 11.638 6.43434 12.3882 7.02312 12.977C7.6119 13.5657 8.36205 13.9667 9.17871 14.1291C9.99537 14.2916 10.8419 14.2082 11.6111 13.8896C12.3804 13.5709 13.0379 13.0313 13.5005 12.339C13.9631 11.6467 14.21 10.8327 14.21 10C14.2074 8.88429 13.763 7.815 12.974 7.02604C12.1851 6.23708 11.1158 5.79268 10 5.79004Z" fill="#414042"/>
<path d="M19 10.5H1C0.867392 10.5 0.740215 10.4473 0.646447 10.3536C0.552679 10.2598 0.5 10.1326 0.5 10C0.5 9.86739 0.552679 9.74021 0.646447 9.64645C0.740215 9.55268 0.867392 9.5 1 9.5H19C19.1326 9.5 19.2598 9.55268 19.3536 9.64645C19.4473 9.74021 19.5 9.86739 19.5 10C19.5 10.1326 19.4473 10.2598 19.3536 10.3536C19.2598 10.4473 19.1326 10.5 19 10.5Z" fill="#414042"/>
<path d="M10 19.5C9.86739 19.5 9.74021 19.4473 9.64645 19.3536C9.55268 19.2598 9.5 19.1326 9.5 19V1C9.5 0.867392 9.55268 0.740215 9.64645 0.646447C9.74021 0.552679 9.86739 0.5 10 0.5C10.1326 0.5 10.2598 0.552679 10.3536 0.646447C10.4473 0.740215 10.5 0.867392 10.5 1V19C10.5 19.1326 10.4473 19.2598 10.3536 19.3536C10.2598 19.4473 10.1326 19.5 10 19.5Z" fill="#414042"/>
</svg>
