<svg width="18" height="18" viewBox="0 0 18 18" fill="none" xmlns="http://www.w3.org/2000/svg">
<path d="M9.08005 17.2399C7.71942 17.2412 6.37843 16.9153 5.17005 16.2899C5.11161 16.2597 5.0597 16.2183 5.01726 16.1681C4.97483 16.1178 4.94272 16.0597 4.92275 15.997C4.90279 15.9343 4.89537 15.8683 4.90091 15.8027C4.90645 15.7372 4.92485 15.6734 4.95505 15.6149C4.98525 15.5565 5.02667 15.5046 5.07694 15.4622C5.12721 15.4197 5.18534 15.3876 5.24802 15.3676C5.3107 15.3477 5.3767 15.3403 5.44225 15.3458C5.5078 15.3513 5.57161 15.3697 5.63005 15.3999C7.24855 16.2233 9.11033 16.4333 10.8715 15.991C12.6328 15.5487 14.1744 14.484 15.2119 12.9936C16.2493 11.5032 16.7124 9.68777 16.5156 7.88256C16.3188 6.07734 15.4755 4.40431 14.1413 3.17243C12.8071 1.94055 11.0723 1.23305 9.25714 1.18059C7.44199 1.12812 5.66917 1.73424 4.26608 2.887C2.86299 4.03976 1.92442 5.66129 1.6237 7.45213C1.32299 9.24296 1.68044 11.0821 2.63005 12.6299C2.69704 12.7445 2.71675 12.8806 2.68501 13.0094C2.65327 13.1383 2.57257 13.2496 2.46005 13.3199C2.40367 13.3544 2.34102 13.3774 2.27572 13.3875C2.21042 13.3976 2.14376 13.3947 2.07959 13.3789C2.01543 13.3631 1.95504 13.3347 1.90191 13.2954C1.84877 13.2561 1.80396 13.2067 1.77005 13.1499C0.672655 11.3926 0.254879 9.29499 0.595245 7.25131C0.935611 5.20763 2.01068 3.35862 3.61839 2.05182C5.22611 0.745016 7.25576 0.0703976 9.32587 0.15476C11.396 0.239122 13.364 1.07666 14.8601 2.50995C16.0154 3.5808 16.8504 4.95164 17.2719 6.46948C17.6935 7.98732 17.6849 9.59245 17.2472 11.1057C16.8095 12.619 15.9599 13.9808 14.7932 15.0393C13.6265 16.0978 12.1886 16.8112 10.6401 17.0999C10.1256 17.1957 9.6033 17.2426 9.08005 17.2399Z" fill="#414042"/>
<path d="M1.32009 17.7599C1.12624 17.7563 0.93628 17.7049 0.767006 17.6104C0.597733 17.5158 0.45436 17.381 0.349567 17.2179C0.244774 17.0548 0.18179 16.8684 0.166183 16.6751C0.150576 16.4819 0.182828 16.2877 0.260087 16.1099L1.78009 12.6899C1.83667 12.5687 1.9386 12.4746 2.06393 12.4278C2.18925 12.381 2.32793 12.3854 2.45009 12.4399C2.57059 12.4945 2.66455 12.5946 2.71141 12.7183C2.75827 12.842 2.75419 12.9792 2.70009 13.0999L1.17009 16.5199C1.15061 16.5459 1.14009 16.5775 1.14009 16.6099C1.14009 16.6424 1.15061 16.674 1.17009 16.6999C1.19193 16.7249 1.22062 16.743 1.2526 16.7519C1.28459 16.7607 1.31848 16.7601 1.35009 16.7499L5.20008 15.3799C5.2617 15.3562 5.32746 15.3452 5.39343 15.3475C5.45941 15.3499 5.52423 15.3655 5.584 15.3936C5.64377 15.4216 5.69727 15.4614 5.74127 15.5106C5.78528 15.5598 5.81889 15.6174 5.84008 15.6799C5.88512 15.8046 5.87881 15.942 5.82256 16.062C5.7663 16.182 5.6647 16.2748 5.54008 16.3199L1.72009 17.6899C1.59213 17.7374 1.45657 17.7611 1.32009 17.7599Z" fill="#414042"/>
</svg>
