<svg width="22" height="20" viewBox="0 0 22 20" fill="none" xmlns="http://www.w3.org/2000/svg">
<path d="M9.34007 15.5499C9.2388 15.5519 9.13923 15.5237 9.05405 15.4689C8.96888 15.4141 8.90196 15.3351 8.86182 15.2421C8.82168 15.1491 8.81015 15.0463 8.82868 14.9467C8.84721 14.8471 8.89498 14.7553 8.96589 14.683C9.0368 14.6107 9.12764 14.5611 9.22684 14.5406C9.32603 14.5201 9.42908 14.5296 9.52286 14.5679C9.61663 14.6062 9.69688 14.6715 9.75337 14.7556C9.80987 14.8397 9.84005 14.9386 9.84007 15.0399C9.84009 15.1735 9.78774 15.3017 9.69424 15.3971C9.60075 15.4924 9.47359 15.5473 9.34007 15.5499Z" fill="#414042"/>
<path d="M13.01 15.5499C13.2862 15.5499 13.51 15.3261 13.51 15.0499C13.51 14.7738 13.2862 14.5499 13.01 14.5499C12.7339 14.5499 12.51 14.7738 12.51 15.0499C12.51 15.3261 12.7339 15.5499 13.01 15.5499Z" fill="#414042"/>
<path d="M13.27 19.48H8.73004C7.55248 19.48 6.42315 19.0122 5.59048 18.1795C4.75782 17.3469 4.29004 16.2175 4.29004 15.04C4.29004 13.8624 4.75782 12.7331 5.59048 11.9004C6.42315 11.0678 7.55248 10.6 8.73004 10.6H13.27C14.4476 10.6 15.5769 11.0678 16.4096 11.9004C17.2423 12.7331 17.71 13.8624 17.71 15.04C17.71 16.2175 17.2423 17.3469 16.4096 18.1795C15.5769 19.0122 14.4476 19.48 13.27 19.48ZM8.73004 11.6C8.27829 11.6 7.83097 11.689 7.41361 11.8618C6.99625 12.0347 6.61703 12.2881 6.29759 12.6075C5.97816 12.927 5.72477 13.3062 5.55189 13.7235C5.37902 14.1409 5.29004 14.5882 5.29004 15.04C5.29004 15.4917 5.37902 15.939 5.55189 16.3564C5.72477 16.7738 5.97816 17.153 6.29759 17.4724C6.61703 17.7919 6.99625 18.0452 7.41361 18.2181C7.83097 18.391 8.27829 18.48 8.73004 18.48H13.27C14.1824 18.48 15.0574 18.1175 15.7025 17.4724C16.3476 16.8273 16.71 15.9523 16.71 15.04C16.71 14.1276 16.3476 13.2527 15.7025 12.6075C15.0574 11.9624 14.1824 11.6 13.27 11.6H8.73004Z" fill="#414042"/>
<path d="M19 13.06H16.32C16.1874 13.06 16.0602 13.0073 15.9664 12.9135C15.8727 12.8198 15.82 12.6926 15.82 12.56C15.82 12.4274 15.8727 12.3002 15.9664 12.2064C16.0602 12.1127 16.1874 12.06 16.32 12.06H19C19.4819 12.0574 19.9433 11.8648 20.284 11.524C20.6248 11.1833 20.8174 10.7219 20.82 10.24C20.8173 7.92983 19.8992 5.71491 18.2666 4.08046C16.634 2.446 14.4201 1.52527 12.11 1.51998H9.99998C7.68811 1.52263 5.47168 2.44219 3.83693 4.07693C2.20219 5.71167 1.28263 7.9281 1.27998 10.24C1.28261 10.7219 1.4752 11.1833 1.81595 11.524C2.1567 11.8648 2.6181 12.0574 3.09998 12.06H5.67998C5.81259 12.06 5.93977 12.1127 6.03353 12.2064C6.1273 12.3002 6.17998 12.4274 6.17998 12.56C6.17998 12.6926 6.1273 12.8198 6.03353 12.9135C5.93977 13.0073 5.81259 13.06 5.67998 13.06H3.04998C2.30207 13.06 1.58479 12.7629 1.05594 12.234C0.527087 11.7052 0.22998 10.9879 0.22998 10.24C0.231285 8.95969 0.485249 7.69224 0.977316 6.51028C1.46938 5.32832 2.18988 4.2551 3.0975 3.35212C4.00512 2.44914 5.08203 1.73416 6.2665 1.24817C7.45096 0.762173 8.7197 0.514716 9.99998 0.51998H12.11C14.6836 0.525264 17.1503 1.54998 18.9701 3.36981C20.79 5.18964 21.8147 7.65635 21.82 10.23C21.82 10.9788 21.5232 11.6971 20.9946 12.2276C20.4661 12.758 19.7488 13.0573 19 13.06Z" fill="#414042"/>
<path d="M2.16999 10.3299C1.62389 10.3214 1.08436 10.2095 0.579989 9.99993C0.518887 9.97569 0.463166 9.93963 0.416014 9.89382C0.368862 9.84802 0.331205 9.79337 0.305198 9.733C0.279191 9.67262 0.265344 9.60771 0.264451 9.54198C0.263557 9.47625 0.275633 9.41099 0.299989 9.34993C0.322019 9.28833 0.356408 9.23188 0.401046 9.18406C0.445683 9.13623 0.499626 9.09803 0.559562 9.07181C0.619498 9.04559 0.684161 9.0319 0.749581 9.03157C0.815001 9.03125 0.879797 9.0443 0.939989 9.06993C1.33272 9.22029 1.74946 9.29821 2.16999 9.29993C2.86037 9.29507 3.53126 9.07049 4.08543 8.65873C4.6396 8.24697 5.04824 7.66944 5.25214 7.00985C5.45604 6.35025 5.44459 5.64285 5.21945 4.9902C4.99432 4.33754 4.56719 3.77354 3.99999 3.37993C3.90782 3.29945 3.84836 3.18797 3.83287 3.06659C3.81738 2.94521 3.84694 2.82236 3.91594 2.72132C3.98495 2.62027 4.08862 2.54803 4.20731 2.51829C4.32601 2.48855 4.45149 2.50336 4.55999 2.55993C5.31329 3.06962 5.88322 3.80752 6.18599 4.66518C6.48875 5.52284 6.50839 6.455 6.24201 7.32465C5.97563 8.1943 5.43729 8.95555 4.70612 9.49651C3.97495 10.0375 3.08952 10.3296 2.17999 10.3299H2.16999Z" fill="#414042"/>
<path d="M21.26 10.3099C19.6974 10.1917 18.2367 9.48895 17.1691 8.34171C16.1016 7.19447 15.5056 5.68704 15.5 4.11994C15.4979 3.36418 15.637 2.61466 15.91 1.90994C15.9343 1.84884 15.9703 1.79312 16.0161 1.74597C16.0619 1.69882 16.1166 1.66116 16.177 1.63515C16.2373 1.60915 16.3022 1.5953 16.368 1.59441C16.4337 1.59351 16.499 1.60559 16.56 1.62995C16.6216 1.65198 16.6781 1.68636 16.7259 1.731C16.7737 1.77564 16.8119 1.82958 16.8381 1.88952C16.8644 1.94945 16.8781 2.01412 16.8784 2.07954C16.8787 2.14496 16.8657 2.20975 16.84 2.26994C16.5612 3.02382 16.4605 3.83198 16.546 4.63122C16.6314 5.43046 16.9006 6.19909 17.3325 6.87698C17.7644 7.55487 18.3473 8.12363 19.0356 8.53877C19.7239 8.95391 20.4989 9.20416 21.3 9.26994C21.4326 9.26994 21.5598 9.32262 21.6536 9.41639C21.7473 9.51016 21.8 9.63734 21.8 9.76994C21.8 9.90255 21.7473 10.0297 21.6536 10.1235C21.5598 10.2173 21.4326 10.2699 21.3 10.2699L21.26 10.3099Z" fill="#414042"/>
</svg>
