<svg width="18" height="18" viewBox="0 0 18 18" fill="none" xmlns="http://www.w3.org/2000/svg">
<path d="M0.999973 17.5C0.896505 17.4996 0.795533 17.4682 0.709973 17.41C0.63662 17.3689 0.57509 17.3096 0.531305 17.2378C0.48752 17.166 0.462955 17.0841 0.459973 17V3.00004C0.459258 2.89847 0.489496 2.79909 0.546661 2.71513C0.603827 2.63117 0.685208 2.56661 0.779973 2.53004L5.88997 0.530044C6.00658 0.48966 6.13337 0.48966 6.24997 0.530044L11.1 2.43004L16.89 0.530044C16.9646 0.501652 17.0453 0.493175 17.1242 0.505448C17.2031 0.517722 17.2775 0.550323 17.34 0.600044C17.4033 0.645478 17.4546 0.705639 17.4894 0.775329C17.5243 0.84502 17.5416 0.922145 17.54 1.00004V15C17.5407 15.1044 17.5082 15.2062 17.447 15.2908C17.3858 15.3753 17.2993 15.4381 17.2 15.47L11.2 17.47C11.0901 17.5098 10.9698 17.5098 10.86 17.47L6.05997 15.58L1.13997 17.47C1.09475 17.4859 1.04772 17.496 0.999973 17.5ZM6.09997 14.5C6.16243 14.4852 6.22751 14.4852 6.28997 14.5L11 16.47L16.53 14.6V1.69004L11.23 3.43004C11.1201 3.46976 10.9998 3.46976 10.89 3.43004L6.05997 1.54004L1.45997 3.30004V16.3L5.88997 14.61C5.93887 14.5711 5.99782 14.5468 6.05997 14.54L6.09997 14.5Z" fill="#414042"/>
<path d="M6.06006 15.54C5.92745 15.54 5.80027 15.4873 5.7065 15.3936C5.61274 15.2998 5.56006 15.1726 5.56006 15.04V1C5.56006 0.867392 5.61274 0.740215 5.7065 0.646447C5.80027 0.552679 5.92745 0.5 6.06006 0.5C6.19267 0.5 6.31984 0.552679 6.41361 0.646447C6.50738 0.740215 6.56006 0.867392 6.56006 1V15C6.56559 15.0689 6.55676 15.1383 6.53412 15.2036C6.51149 15.269 6.47553 15.329 6.42854 15.3797C6.38155 15.4305 6.32454 15.4709 6.26111 15.4985C6.19769 15.5261 6.12923 15.5402 6.06006 15.54Z" fill="#414042"/>
<path d="M11.0898 17.5C10.9572 17.5 10.8301 17.4473 10.7363 17.3536C10.6425 17.2598 10.5898 17.1326 10.5898 17V3C10.5898 2.86739 10.6425 2.74021 10.7363 2.64645C10.8301 2.55268 10.9572 2.5 11.0898 2.5C11.2225 2.5 11.3496 2.55268 11.4434 2.64645C11.5372 2.74021 11.5898 2.86739 11.5898 3V17C11.5898 17.1326 11.5372 17.2598 11.4434 17.3536C11.3496 17.4473 11.2225 17.5 11.0898 17.5Z" fill="#414042"/>
</svg>
