<svg width="30" height="21" viewBox="0 0 30 21" fill="none" xmlns="http://www.w3.org/2000/svg">
<path d="M29.3333 10.7733C29.3364 10.9181 29.2893 11.0594 29.2 11.1733L22.3733 20.3067C22.3112 20.3904 22.231 20.4591 22.1387 20.5076C22.0463 20.5561 21.9442 20.5831 21.84 20.5867H8.17335C8.06684 20.5851 7.96212 20.5591 7.86732 20.5105C7.77251 20.4619 7.69017 20.3922 7.62668 20.3067L0.800013 11.1733C0.715465 11.0571 0.669922 10.9171 0.669922 10.7733C0.669922 10.6296 0.715465 10.4896 0.800013 10.3733L7.62668 1.24C7.69085 1.15617 7.77365 1.08842 7.86854 1.04214C7.96342 0.995853 8.06778 0.972298 8.17335 0.973335H21.84C21.9433 0.974344 22.0451 0.998886 22.1375 1.04509C22.2299 1.0913 22.3106 1.15796 22.3733 1.24L29.2 10.3733C29.2874 10.4883 29.3343 10.6289 29.3333 10.7733ZM21.5067 19.2533L27.84 10.7733L21.5067 2.30667H8.50668L2.16001 10.7733L8.50668 19.2533H21.5067Z" fill="#414042"/>
<path d="M21.7733 10.7733C21.7764 10.9181 21.7292 11.0594 21.6399 11.1733L18.5866 15.2667C18.5238 15.3487 18.4431 15.4154 18.3507 15.4616C18.2583 15.5078 18.1566 15.5323 18.0533 15.5333H11.9466C11.8433 15.5323 11.7416 15.5078 11.6491 15.4616C11.5567 15.4154 11.4761 15.3487 11.4133 15.2667L8.33327 11.1733C8.24239 11.0598 8.19287 10.9187 8.19287 10.7733C8.19287 10.6279 8.24239 10.4868 8.33327 10.3733L11.3866 6.29333C11.4472 6.20893 11.5274 6.14055 11.6203 6.09409C11.7132 6.04763 11.8161 6.02448 11.9199 6.02666H18.0266C18.1305 6.02448 18.2333 6.04763 18.3262 6.09409C18.4191 6.14055 18.4994 6.20893 18.5599 6.29333L21.6666 10.3733C21.7446 10.4916 21.782 10.632 21.7733 10.7733ZM17.6666 14.2L20.3333 10.7733L17.6666 7.33333H12.3333L9.6666 10.7733L12.3333 14.2H17.6666Z" fill="#414042"/>
</svg>
